<?xml version="1.0" standalone="no"?>
<!DOCTYPE svg PUBLIC "-//W3C//DTD SVG 20010904//EN"
 "http://www.w3.org/TR/2001/REC-SVG-20010904/DTD/svg10.dtd">
<svg version="1.0" xmlns="http://www.w3.org/2000/svg"
 width="700.000000pt" height="659.000000pt" viewBox="0 0 700.000000 659.000000"
 preserveAspectRatio="xMidYMid meet">
<metadata>
Created by potrace 1.14, written by Peter Selinger 2001-2017
</metadata>
<g transform="translate(0.000000,659.000000) scale(0.100000,-0.100000)"
fill="#000000" stroke="none">
<path d="M2751 6480 c-1 -3 6 -36 14 -75 8 -38 19 -133 25 -210 12 -159 40
-311 75 -414 28 -84 25 -86 -68 -40 -82 41 -133 80 -305 227 -185 159 -204
170 -310 187 -107 18 -120 22 -255 75 -60 23 -111 39 -115 35 -4 -3 9 -20 28
-36 33 -28 79 -51 355 -184 156 -75 267 -157 315 -233 21 -33 71 -95 112 -138
40 -43 65 -75 56 -71 -57 21 -119 28 -319 37 -240 10 -278 15 -464 61 -88 22
-140 42 -196 74 -121 69 -195 97 -274 102 l-70 4 42 -20 c51 -24 118 -69 190
-127 56 -46 140 -82 212 -90 25 -4 75 -15 110 -25 35 -11 125 -30 200 -44 219
-39 317 -81 444 -190 89 -76 139 -147 172 -245 41 -121 124 -527 155 -760 22
-166 93 -387 200 -620 32 -69 63 -150 70 -180 7 -30 30 -110 51 -178 22 -68
39 -136 39 -153 0 -43 -98 -291 -123 -312 -33 -28 -231 -122 -332 -157 -85
-30 -96 -32 -200 -27 -131 5 -213 30 -441 133 -107 48 -167 69 -215 75 -36 4
-130 26 -210 47 -211 58 -228 61 -397 83 -226 28 -286 44 -327 84 -39 40 -73
50 -309 100 -120 25 -173 32 -180 25 -17 -17 7 -27 129 -55 61 -14 150 -35
199 -47 82 -19 96 -26 134 -72 7 -9 38 -23 70 -33 55 -16 56 -17 27 -24 -16
-4 -75 -15 -130 -24 -174 -29 -170 -27 -327 -193 -90 -97 -109 -109 -265 -167
-66 -24 -94 -45 -60 -45 20 0 178 55 217 75 19 10 61 45 95 79 76 75 164 158
187 175 56 42 492 78 653 54 107 -16 379 -105 585 -193 384 -163 436 -177 670
-186 80 -3 160 -7 177 -10 l33 -5 -23 -30 c-12 -17 -49 -53 -82 -80 -69 -57
-139 -83 -341 -125 -145 -30 -195 -51 -309 -134 -44 -32 -98 -63 -120 -69 -61
-18 -269 -25 -353 -12 -92 14 -264 70 -402 129 l-105 45 -147 -17 c-154 -17
-178 -22 -178 -37 0 -13 50 -11 181 6 63 9 128 13 144 9 17 -3 84 -27 149 -53
l120 -46 -130 -6 c-170 -8 -253 -32 -394 -115 -83 -48 -181 -74 -313 -81 -100
-5 -113 -4 -191 23 l-84 28 -103 -22 c-104 -22 -131 -34 -113 -51 5 -6 50 -4
120 6 l110 17 73 -27 c88 -33 184 -36 289 -8 l71 19 -73 -83 c-41 -45 -106
-125 -145 -176 -39 -52 -81 -101 -93 -110 -13 -9 -84 -40 -158 -69 -74 -29
-139 -56 -144 -61 -10 -9 170 33 264 61 90 27 154 70 180 120 21 41 194 244
266 311 31 29 50 38 91 43 29 4 83 20 120 35 132 56 179 63 388 58 199 -5 275
-17 410 -68 54 -20 57 -23 40 -35 -13 -10 -50 -14 -114 -14 -188 0 -278 -28
-362 -112 -48 -48 -193 -258 -184 -266 3 -3 28 17 57 44 114 108 290 203 458
249 192 51 255 76 326 126 126 89 218 139 302 166 72 22 95 25 175 21 163 -9
200 -43 154 -141 -13 -29 -55 -88 -93 -131 -160 -184 -216 -256 -274 -352 -79
-130 -177 -254 -232 -292 -24 -16 -82 -50 -129 -76 l-86 -46 -149 20 c-82 11
-215 23 -296 27 l-148 6 0 -26 0 -27 98 -1 c53 -1 126 -4 162 -8 l65 -6 -50
-18 c-28 -10 -86 -46 -130 -82 -79 -63 -238 -241 -232 -259 8 -25 29 -11 71
48 42 60 146 159 236 228 55 42 138 60 281 62 l125 1 100 64 c126 81 185 143
294 311 126 192 158 235 254 337 72 76 94 93 145 112 67 24 99 56 173 171 l48
75 0 -71 c0 -90 -30 -208 -77 -304 -31 -64 -57 -95 -174 -210 l-137 -135 -6
-64 c-12 -130 -74 -184 -359 -315 -117 -54 -157 -81 -157 -107 0 -26 7 -24 69
17 43 29 292 154 307 154 30 0 -94 -133 -170 -182 -66 -43 -151 -72 -241 -83
-56 -7 -63 -10 -133 -78 -73 -71 -151 -163 -188 -222 -14 -24 -7 -20 36 20
138 127 241 193 321 206 67 10 161 49 225 93 21 14 40 23 42 21 3 -2 -26 -46
-65 -97 -116 -156 -111 -147 -133 -272 -11 -64 -22 -129 -26 -144 -3 -15 19
27 49 93 84 188 134 278 178 321 l40 39 -2 -82 c-2 -82 -1 -83 49 -171 39 -67
54 -104 62 -157 6 -39 15 -83 21 -100 9 -25 4 -48 -24 -138 -31 -96 -34 -128
-9 -113 4 2 21 45 37 95 16 50 32 91 36 91 3 0 18 -27 32 -60 15 -33 31 -60
37 -60 27 0 -5 84 -61 157 -27 35 -34 58 -46 135 -11 78 -20 103 -58 167 -49
83 -54 113 -36 239 9 58 14 68 81 143 114 130 139 178 164 320 l12 74 12 -66
c7 -36 12 -79 13 -95 1 -20 6 -10 19 36 55 203 116 299 321 507 l161 164 -4
119 c-2 65 0 117 4 114 4 -3 8 -12 8 -20 0 -26 87 -279 122 -355 19 -41 53
-102 76 -137 49 -75 57 -112 76 -332 13 -154 12 -173 -5 -284 -16 -100 -29
-139 -78 -251 -119 -268 -165 -459 -159 -659 1 -63 6 -117 10 -121 21 -21 28
16 28 151 0 240 37 372 194 690 l104 211 4 224 c4 234 14 296 38 234 7 -16 19
-52 27 -80 23 -77 54 -123 144 -210 l82 -80 -31 56 c-95 174 -190 354 -223
427 l-39 84 0 166 c-1 139 -4 176 -20 222 -11 30 -19 71 -20 90 0 20 -15 67
-34 106 -18 39 -37 81 -41 95 -11 35 99 -88 157 -176 52 -80 175 -202 264
-262 80 -54 117 -94 172 -183 64 -105 67 -108 160 -151 54 -25 98 -55 130 -86
52 -52 123 -182 166 -301 24 -67 26 -86 26 -236 l0 -162 31 -50 c17 -27 48
-69 69 -94 39 -46 107 -176 153 -290 19 -47 28 -92 32 -163 5 -74 10 -97 21
-97 11 0 14 15 14 63 0 91 -22 179 -75 298 -47 110 -62 135 -152 259 l-52 71
1 162 1 162 -43 100 c-23 55 -51 120 -61 144 -11 25 -30 59 -43 75 -12 17 -25
36 -29 43 -7 12 208 -84 348 -154 44 -23 112 -65 150 -93 39 -29 93 -63 120
-76 28 -13 63 -37 78 -52 l28 -29 -20 -120 c-21 -121 -39 -184 -81 -281 -21
-49 -22 -55 -7 -70 20 -19 17 -22 49 54 30 71 64 188 74 257 3 27 10 45 14 40
9 -9 52 -133 75 -215 10 -37 21 -58 30 -58 8 0 15 4 15 8 0 23 -44 172 -70
238 -17 41 -30 83 -30 94 0 18 1 18 40 -2 22 -12 59 -44 82 -72 l42 -50 4
-165 c2 -113 -1 -178 -9 -204 -11 -33 -9 -52 10 -135 47 -198 117 -294 271
-370 83 -41 136 -54 128 -31 -2 6 -35 24 -73 40 -176 74 -245 156 -288 340
-26 110 -27 117 -11 154 13 33 15 61 9 181 l-7 143 31 19 31 19 -96 84 c-53
46 -127 112 -165 146 -38 34 -79 65 -92 69 -12 3 -65 37 -117 74 -107 77 -180
115 -430 225 -96 42 -200 91 -230 107 -76 42 -147 113 -177 176 -13 29 -52 89
-85 134 -33 44 -69 95 -79 112 -48 78 -2 75 114 -9 63 -45 99 -65 120 -65 32
0 80 -34 272 -190 128 -104 222 -167 299 -199 54 -23 75 -26 181 -26 66 1 206
9 310 19 324 30 314 30 378 6 67 -25 196 -124 227 -176 30 -48 28 -178 -4
-323 -44 -194 -50 -242 -35 -252 18 -11 25 4 34 71 4 30 18 98 31 150 21 81
44 224 44 269 0 8 29 -14 64 -47 71 -68 94 -75 171 -47 22 8 65 14 96 15 70 0
96 -19 109 -77 13 -57 -4 -336 -23 -390 -14 -37 -14 -43 -1 -54 13 -10 17 -10
25 2 26 41 34 103 34 281 l0 187 -35 36 c-56 58 -104 63 -241 25 -43 -12 -49
-12 -82 9 -20 12 -47 37 -59 54 -13 18 -53 65 -91 106 l-68 74 38 17 c46 20
67 44 59 66 -5 13 -11 12 -37 -10 -37 -32 -109 -36 -137 -9 -46 45 -169 151
-186 160 -27 15 -49 6 -67 -26 -21 -37 -46 -41 -251 -41 -138 0 -183 -4 -248
-21 -69 -17 -87 -19 -141 -9 -134 24 -309 148 -432 305 -119 152 -177 242
-177 276 0 17 5 29 13 29 7 0 57 -12 112 -26 99 -26 102 -26 375 -20 151 3
320 10 375 16 157 16 321 14 392 -4 34 -9 115 -37 180 -62 95 -37 125 -45 157
-40 51 9 143 55 241 121 93 63 171 88 231 75 60 -14 165 -59 202 -86 42 -32
55 -60 81 -170 l21 -90 -22 -52 c-12 -28 -19 -54 -15 -58 16 -16 35 9 51 65
15 52 15 71 6 118 -19 91 -49 165 -78 196 -34 36 -115 77 -211 108 l-75 24 45
7 c96 14 202 8 298 -17 110 -30 139 -46 243 -137 42 -38 82 -68 87 -68 25 0 7
29 -51 87 -93 90 -141 120 -245 153 -78 25 -110 30 -192 30 -119 0 -257 -23
-314 -52 -23 -11 -68 -38 -100 -60 -75 -51 -168 -95 -232 -109 -56 -12 -74 -9
-223 47 l-73 27 31 26 c30 26 104 177 94 193 -11 18 -24 4 -64 -70 -23 -42
-46 -81 -50 -86 -19 -20 -125 -25 -230 -11 -181 23 -382 28 -535 14 -77 -8
-185 -14 -240 -13 -93 1 -107 4 -200 41 -55 22 -116 43 -136 47 -47 8 -166 92
-244 171 -106 108 -161 215 -216 423 -35 134 -35 193 2 441 44 296 38 394 -38
625 -73 222 -74 336 -8 660 74 368 147 545 285 687 100 102 212 149 360 149
195 0 249 29 381 201 98 129 129 155 229 192 84 32 169 45 364 57 l159 10 148
79 c81 44 164 87 185 96 20 8 35 18 32 20 -3 3 -101 -27 -219 -66 l-213 -72
-115 12 c-76 8 -125 9 -141 3 -14 -5 -101 -26 -195 -47 -323 -71 -364 -92
-405 -209 -38 -106 -43 -109 -152 -112 -51 -1 -122 -7 -158 -13 -104 -17 -284
-25 -305 -13 -16 8 -9 15 51 44 38 19 135 63 217 98 146 62 148 63 202 130 31
37 79 108 109 156 35 60 68 100 99 124 25 19 45 36 43 38 -2 1 -32 -9 -67 -23
-88 -35 -151 -86 -223 -180 -91 -118 -139 -147 -398 -234 -141 -47 -228 -71
-250 -69 -32 3 -33 4 -36 54 -2 29 4 82 13 118 22 96 19 118 -22 204 l-37 77
-6 -85 c-4 -47 -17 -125 -30 -173 -24 -93 -42 -119 -123 -180 -20 -15 -68 -68
-106 -117 l-68 -89 -32 48 c-38 60 -55 71 -156 105 -148 51 -211 146 -239 362
-11 86 -21 116 -64 205 -28 57 -51 102 -51 99z m655 -1572 c4 -6 -57 -140
-137 -300 -108 -217 -148 -288 -162 -288 -45 0 -42 7 160 398 98 189 121 220
139 190z m-296 -173 c0 -8 -27 -37 -59 -66 l-59 -52 52 -45 c28 -25 55 -51 59
-59 10 -17 1 -33 -20 -33 -21 0 -153 118 -153 137 0 15 60 73 123 120 30 22
57 21 57 -2z m404 -41 c42 -37 76 -72 74 -80 -4 -19 -140 -134 -159 -134 -39
0 -27 31 32 82 l59 53 -61 57 c-53 49 -60 59 -49 73 7 8 16 15 19 15 4 0 42
-30 85 -66z"/>
</g>
</svg>
