<?xml version="1.0" standalone="no"?>
<!DOCTYPE svg PUBLIC "-//W3C//DTD SVG 20010904//EN"
 "http://www.w3.org/TR/2001/REC-SVG-20010904/DTD/svg10.dtd">
<svg version="1.0" xmlns="http://www.w3.org/2000/svg"
 width="651.000000pt" height="651.000000pt" viewBox="0 0 651.000000 651.000000"
 preserveAspectRatio="xMidYMid meet">
<metadata>
Created by potrace 1.15, written by Peter Selinger 2001-2017
</metadata>
<g transform="translate(0.000000,651.000000) scale(0.100000,-0.100000)"
fill="#000000" stroke="none">
<path d="M3024 6116 c-320 -52 -587 -253 -720 -540 -39 -86 -71 -195 -80 -278
l-7 -60 -411 7 c-286 5 -419 4 -438 -4 -35 -13 -68 -66 -68 -106 1 -18 30 -83
75 -164 l74 -134 -58 -66 c-193 -218 -304 -495 -318 -791 -16 -324 88 -602
306 -821 210 -209 482 -321 856 -350 l130 -10 328 -147 c180 -81 327 -149 327
-152 -1 -3 -79 -102 -175 -220 -115 -141 -177 -225 -181 -245 -9 -47 17 -98
59 -118 28 -14 66 -17 186 -17 l151 0 -2 -178 -3 -177 -455 -5 c-250 -3 -463
-9 -473 -14 -46 -22 -47 -35 -47 -558 0 -541 -2 -521 60 -553 25 -13 162 -15
1035 -15 1105 0 1047 -3 1080 60 12 23 15 71 15 241 0 185 2 210 15 205 9 -3
203 -9 433 -12 464 -8 464 -8 498 58 23 45 14 79 -55 200 -34 60 -61 111 -61
115 0 5 31 44 69 88 184 211 269 464 240 708 -48 402 -370 739 -842 881 -143
43 -256 63 -443 79 l-149 13 -322 145 c-178 79 -323 147 -323 151 0 5 70 94
156 199 85 105 164 205 175 222 23 38 24 68 4 107 -29 56 -44 60 -222 60
l-163 0 0 160 c0 120 3 161 13 164 6 2 53 13 102 25 362 87 640 394 703 775
13 84 14 116 4 216 -20 202 -84 362 -204 513 -201 254 -559 395 -874 343z
m289 -232 c328 -72 567 -371 567 -709 0 -388 -321 -705 -715 -708 -248 -2
-465 117 -606 331 -74 113 -110 238 -110 388 0 160 49 304 146 432 163 215
456 324 718 266z m-1316 -876 c-2 -7 -48 -84 -100 -172 -93 -154 -96 -157
-110 -135 -15 25 -145 256 -166 297 l-12 22 197 0 c153 0 195 -3 191 -12z
m257 -78 c12 -62 68 -185 121 -266 143 -220 383 -378 623 -413 l47 -6 3 -163
2 -162 -158 0 c-172 0 -188 -4 -217 -60 -34 -65 -30 -72 186 -337 82 -100 149
-186 149 -191 0 -5 -147 -76 -327 -157 l-328 -147 -95 7 c-450 32 -753 214
-891 534 -49 115 -70 220 -71 356 0 231 70 443 208 628 50 68 59 75 69 59 6
-9 40 -68 74 -130 35 -62 74 -120 87 -129 34 -22 89 -21 121 3 16 12 103 144
203 312 96 160 178 291 181 292 4 0 9 -14 13 -30z m1066 -1236 c0 -10 -141
-184 -149 -184 -9 0 -151 174 -151 184 0 3 68 6 150 6 83 0 150 -3 150 -6z
m111 -664 c134 -60 243 -112 242 -116 -2 -9 -483 -224 -500 -224 -19 0 -494
215 -496 224 -2 10 470 225 494 225 10 1 127 -48 260 -109z m895 -259 c420
-77 728 -302 829 -606 63 -187 36 -381 -77 -558 -41 -64 -86 -117 -99 -117 -4
0 -42 62 -84 138 -81 146 -106 172 -165 172 -65 0 -77 -15 -270 -339 l-185
-311 -5 166 -5 166 -33 29 -32 29 -455 0 -455 0 0 180 0 180 146 0 c170 0 207
11 231 68 26 63 14 86 -171 313 -96 118 -171 217 -168 221 4 4 151 72 327 152
l320 146 120 -5 c66 -2 170 -13 231 -24z m-1080 -639 c-42 -2 -110 -2 -152 0
l-77 3 77 93 77 93 76 -93 76 -93 -77 -3z m1582 -849 l91 -163 -195 0 c-107 0
-194 3 -194 7 0 17 195 332 201 325 4 -4 48 -80 97 -169z m-1302 -12 c-27 -27
-45 -54 -42 -59 4 -6 23 7 46 31 l39 42 1 -147 c0 -125 2 -148 15 -148 13 0
15 23 15 147 l0 147 44 -43 c30 -29 46 -39 51 -31 4 7 -12 31 -41 61 l-48 49
217 0 217 0 0 -345 0 -345 -870 0 -870 0 0 338 c0 186 3 342 7 345 3 4 290 7
637 7 l630 0 -48 -49z"/>
<path d="M3254 5592 c-138 -48 -234 -195 -234 -357 0 -255 162 -459 380 -481
161 -16 296 49 358 173 44 87 57 145 57 258 0 100 -3 116 -29 172 -33 73 -117
158 -192 196 -110 55 -247 71 -340 39z m260 -52 c103 -35 198 -116 236 -202
61 -140 18 -359 -91 -465 -68 -65 -127 -88 -229 -88 -77 1 -91 4 -148 35 -77
41 -124 92 -168 185 -77 159 -68 319 23 449 37 52 99 96 151 107 53 11 163 1
226 -21z"/>
<path d="M3320 5270 c0 -17 7 -20 49 -20 l49 0 4 -137 c2 -76 3 -139 2 -141
-1 -2 -27 -6 -58 -9 -46 -5 -56 -9 -56 -24 0 -23 18 -23 167 -6 101 12 145 29
109 43 -9 4 -39 4 -66 2 -48 -5 -49 -4 -56 26 -4 17 -7 86 -6 152 l1 122 -31
6 c-17 3 -48 6 -69 6 -32 0 -39 -3 -39 -20z"/>
<path d="M2991 1245 c-24 -7 -57 -26 -73 -42 -32 -30 -68 -92 -68 -117 0 -12
-11 -13 -55 -9 -71 7 -132 -15 -178 -66 -92 -102 -67 -254 53 -321 l45 -25
430 0 c412 0 431 1 464 20 49 29 73 67 79 124 4 44 2 51 -12 45 -9 -3 -13 -10
-10 -15 11 -18 -17 -86 -46 -114 l-31 -30 -417 -3 c-229 -2 -432 0 -450 3 -37
7 -96 55 -118 96 -22 43 -18 127 9 174 30 53 92 87 159 88 42 1 54 -3 66 -21
21 -32 32 -27 32 16 1 135 148 224 268 163 48 -24 92 -83 92 -123 0 -16 1 -28
3 -28 1 0 24 11 51 25 60 30 80 31 130 5 48 -24 66 -16 29 13 -22 17 -40 22
-88 21 -33 0 -70 -4 -82 -8 -18 -7 -23 -5 -23 8 0 28 -91 113 -135 125 -50 14
-69 13 -124 -4z"/>
<path d="M5087 3876 c-84 -31 -121 -95 -121 -211 0 -62 5 -89 22 -122 39 -74
108 -110 194 -100 62 8 110 37 140 85 20 32 23 50 23 138 0 93 -2 104 -27 142
-16 23 -42 49 -59 58 -44 22 -126 27 -172 10z m138 -46 c56 -27 79 -78 79
-169 -1 -78 -27 -139 -70 -161 -37 -20 -122 -18 -156 4 -42 27 -63 81 -63 161
0 92 23 141 79 166 53 24 80 24 131 -1z"/>
<path d="M3961 3858 c-5 -13 -39 -99 -76 -193 -37 -93 -71 -180 -76 -192 -7
-20 -5 -23 15 -23 19 0 27 11 50 70 l28 71 86 -3 86 -3 26 -65 c20 -49 32 -66
48 -68 12 -2 22 1 22 6 0 6 -36 103 -81 216 -66 168 -85 206 -100 206 -11 0
-23 -10 -28 -22z"/>
<path d="M4240 3665 l0 -215 115 0 c108 0 115 1 115 20 0 18 -8 20 -92 22
l-93 3 -3 193 c-2 184 -3 192 -22 192 -19 0 -20 -7 -20 -215z"/>
<path d="M4670 3868 c-53 -15 -100 -56 -122 -106 -30 -67 -22 -186 16 -241 48
-69 143 -95 259 -71 l57 11 0 105 0 104 -70 0 c-63 0 -70 -2 -70 -20 0 -17 7
-20 45 -20 l45 0 0 -69 0 -69 -40 -7 c-86 -15 -171 20 -196 80 -18 45 -18 148
1 184 37 72 108 100 202 81 45 -10 57 -9 64 2 14 22 11 25 -35 37 -53 13 -108
13 -156 -1z"/>
<path d="M5720 3665 l0 -215 76 0 c106 0 160 16 204 60 79 79 80 232 1 311
-45 45 -91 59 -198 59 l-83 0 0 -215z m218 151 c42 -22 71 -83 72 -149 0 -115
-69 -177 -197 -177 l-43 0 0 176 0 177 68 -5 c37 -3 82 -13 100 -22z"/>
<path d="M6204 3866 c-43 -19 -64 -53 -64 -103 0 -54 33 -87 120 -122 72 -29
97 -60 86 -105 -13 -51 -87 -66 -192 -40 -23 6 -25 4 -22 -17 2 -20 11 -25 55
-33 107 -18 183 13 204 83 9 30 8 44 -5 74 -13 33 -26 43 -101 77 -93 43 -114
66 -96 112 14 37 68 54 126 39 59 -15 65 -14 65 9 0 36 -114 53 -176 26z"/>
</g>
</svg>
