<?xml version="1.0" encoding="UTF-8" standalone="no"?>
<svg
   xmlns:dc="http://purl.org/dc/elements/1.1/"
   xmlns:cc="http://creativecommons.org/ns#"
   xmlns:rdf="http://www.w3.org/1999/02/22-rdf-syntax-ns#"
   xmlns:svg="http://www.w3.org/2000/svg"
   xmlns="http://www.w3.org/2000/svg"
   xmlns:sodipodi="http://sodipodi.sourceforge.net/DTD/sodipodi-0.dtd"
   xmlns:inkscape="http://www.inkscape.org/namespaces/inkscape"
   viewBox="0 0 372 67.05"
   version="1.1"
   id="svg104"
   sodipodi:docname="logo.svg"
   inkscape:version="0.92.2 (5c3e80d, 2017-08-06)">
  <metadata
     id="metadata108">
    <rdf:RDF>
      <cc:Work
         rdf:about="">
        <dc:format>image/svg+xml</dc:format>
        <dc:type
           rdf:resource="http://purl.org/dc/dcmitype/StillImage" />
        <dc:title>Untitled-4</dc:title>
      </cc:Work>
    </rdf:RDF>
  </metadata>
  <sodipodi:namedview
     pagecolor="#ffffff"
     bordercolor="#666666"
     borderopacity="1"
     objecttolerance="10"
     gridtolerance="10"
     guidetolerance="10"
     inkscape:pageopacity="0"
     inkscape:pageshadow="2"
     inkscape:window-width="1280"
     inkscape:window-height="800"
     id="namedview106"
     showgrid="false"
     inkscape:zoom="2.2365591"
     inkscape:cx="111.77885"
     inkscape:cy="33.525002"
     inkscape:window-x="0"
     inkscape:window-y="0"
     inkscape:window-maximized="0"
     inkscape:current-layer="svg104" />
  <defs
     id="defs12">
    <style
       id="style10">.a{fill:#f56364;}.b{fill:#fc9367;}.c{fill:#fff;}</style>
  </defs>
  <title
     id="title14">Untitled-4</title>
  <path
     class="a"
     d="M68.49,69.59c-.81-.1-1.23.52-1.69,1-2.66,2.65-5.27,5.36-7.94,8a3.12,3.12,0,0,0-.66,2.55c0,6.1,0,12.19,0,18.29,0,1.75-2.13,5-3.69,5.58a1.25,1.25,0,0,1-.64.11c-.93-.17-4-4.15-4-5.17q0-23.78,0-47.55c0-.69,0-1.37,0-2.06a2.52,2.52,0,0,0-1.45-1.89c-.87-.57-1.39.26-1.91.76-1.26,1.21-2.54,2.4-3.71,3.7-.87,1-1.44.66-2.24-.08s-.76-1.37.06-2.18c3.48-3.41,6.91-6.89,10.34-10.36.78-.79,1.47-.91,2.18,0a1.45,1.45,0,0,0,.31.33c4,2.82,5.32,6.58,4.87,11.47s-.11,9.74-.09,14.62a4.86,4.86,0,0,0,.32,2.59c1-.13,1.46-.94,2.08-1.52a24.62,24.62,0,0,1,2.1-2.09c4.53-3.32,6.5-7.55,5.78-13.31A7.31,7.31,0,0,0,65.74,47c-1.42-1.1-1.17-2,0-3a48.56,48.56,0,0,0,3.86-3.77c.69-.76,1.19-.7,1.8-.05,1.63,1.75,3.6,3.17,4.91,5.21-1.31,1.49-3.18,2.11-4.89,2.82-2.28.94-2.92,2.39-2.87,4.75C68.69,58.5,68.54,64,68.49,69.59Z"
     transform="translate(-31 -39.09)"
     id="path16" />
  <path
     class="a"
     d="M106.85,100.5a1.25,1.25,0,0,0-1.82,0c-.33.3-.63.64-1,.93-1.43,1.18-2.36,3.55-4.15,3.51-1.63,0-2.55-2.33-3.94-3.45-.23-.19-.36-.5-.61-.66-4.22-2.7-3.54-6.88-3.44-11,.12-5.17.11-10.36,0-15.53a4.93,4.93,0,0,1,1.69-4c3.59-3.47,7.08-7,10.58-10.6,1.11-1.13,1.78-1.27,3.26-.11,5,3.94,7.12,8.62,6.5,15.16-.65,6.79-.18,13.69-.2,20.55a6.77,6.77,0,0,1-.31-2.92q0-11.08,0-22.15c0-4,0-4-3.66-2.13a12.78,12.78,0,0,1-1.46.65,3.22,3.22,0,0,0-2.26,3.5c.06,8.37,0,16.75,0,25.12A5.13,5.13,0,0,0,106.85,100.5Zm-2.07-1.41.93-.63q0-13.78,0-27.56a2,2,0,0,0-.39-1.25c-1.46-1.66-3-3.27-4.32-4.71-.9.3-.85.66-.86.93q0,13.46,0,26.91a2.12,2.12,0,0,0,.32,1.26C101.85,95.76,103.32,97.42,104.78,99.09Z"
     transform="translate(-31 -39.09)"
     id="path18" />
  <path
     class="b"
     d="M157,64.86c.17,3.62.42,7.32.23,10.87-.43,8.35,0,16.69-.27,25,0,.89-2.88,4.29-3.68,4.33a3.18,3.18,0,0,1-2.4-1.41A6.74,6.74,0,0,1,149,99c.09-15.59,0-31.17,0-46.76a46,46,0,0,0,7.67-3.83l.13.52Q156.92,56.89,157,64.86Z"
     transform="translate(-31 -39.09)"
     id="path20" />
  <path
     class="a"
     d="M206.78,64.91c1.43-1.92,3.43-3.33,4.71-5.41.91-1.49,2.16-1.16,3.23-.11,1.88,1.85,3.65,3.8,5.56,5.61a3.57,3.57,0,0,1,.88,2.93c0,7.23,0,14.47,0,21.7a4.4,4.4,0,0,1-1.29,3.47q-5.65,5.5-11.16,11.14c-1,1.07-1.78,1-2.7-.09a15.51,15.51,0,0,0-2.31-2.19,10.71,10.71,0,0,1-4.29-10c.5-6.51-.14-13.08.28-19.62q0,10.15.05,20.31c0,5-.06,4.88,4.48,2.75,2.29-1.08,3-2.48,3-4.94-.15-7.45,0-14.91-.06-22.37A6.67,6.67,0,0,0,206.78,64.91Zm.73-.23c0,9.73,0,18.93,0,28.13a2.11,2.11,0,0,0,.77,1.58c1.1,1,2.12,2.18,3.2,3.25.42.42.83,1.17,1.44,1,.81-.28.46-1.19.46-1.82q0-12.45,0-24.9a2.64,2.64,0,0,0-.47-1.95A37.83,37.83,0,0,0,207.51,64.68Z"
     transform="translate(-31 -39.09)"
     id="path22" />
  <path
     class="a"
     d="M236.9,63.52c2-.83,3.13-2.75,4.7-4.13.89-.78,1.32-1.07,2.38-.12,1.44,1.29,2.78,2.7,4.3,3.94a7.25,7.25,0,0,1,2.66,6.19c-.24,6.69-.11,13.4-.06,20.1A4.46,4.46,0,0,1,249.52,93q-5.6,5.53-11.14,11.12c-1,1-1.83,1.32-2.88,0-2-2.37-4.58-4.13-6.35-6.69l7.77-3.61L242.63,99c.06-1.22.13-2,.13-2.82,0-7.52-.26-15,.1-22.55.23-4.74-3-6.54-5.89-8.89Z"
     transform="translate(-31 -39.09)"
     id="path24" />
  <path
     class="b"
     d="M68.49,69.59c0-5.55.2-11.09.08-16.64,0-2.36.59-3.81,2.87-4.75,1.71-.71,3.58-1.33,4.89-2.82.64.88.43,1.9.43,2.87q.05,22.45.08,44.9a65.74,65.74,0,0,0-8,4,2.62,2.62,0,0,1-.46-1.95Q68.44,82.38,68.49,69.59Z"
     transform="translate(-31 -39.09)"
     id="path26" />
  <path
     class="b"
     d="M236.9,63.52l.07,1.24q0,14.53-.05,29.06l-7.77,3.61q0-21-.1-42a4.83,4.83,0,0,0-.4-2.87c2.51-1.6,5.5-2.33,7.77-4.35a1.83,1.83,0,0,1,.54,1.65Q236.93,56.72,236.9,63.52Z"
     transform="translate(-31 -39.09)"
     id="path28" />
  <path
     class="a"
     d="M157,64.86q-.06-8-.11-15.93c0,4,.06,7.92.11,11.88,0,.73-.32,1.68.46,2.1s1.28-.59,1.81-1c1.27-1,2.09-3,3.61-3.17s2.21,2,3.43,3c2.8,2.31,2.74,2.38.27,4.85-1.11,1.1-2.93,2.12-3.11,3.36-.2,1.41,1.79,2.45,3,3.42,2,1.61,2.46,3.53,2.4,6-.14,6.7-.18,13.41,0,20.11.08,2.81-2,3.89-3.45,5.48a.74.74,0,0,1-1.05,0c-1.54-1.74-3.74-2.92-3.63-5.89.21-5.32-.06-10.67.1-16,.07-2.42-.49-4.3-2.49-5.71-1.25-.88-1.45-1.74,0-2.82,1.25-1,2.25-2.24,3.42-3.32.85-.79,1-1.42,0-2.22C160.07,67.68,159.06,65.66,157,64.86Z"
     transform="translate(-31 -39.09)"
     id="path30" />
  <path
     class="b"
     d="M106.85,100.5a5.13,5.13,0,0,1-.79-3c0-8.37,0-16.75,0-25.12a3.22,3.22,0,0,1,2.26-3.5,12.78,12.78,0,0,0,1.46-.65c3.66-1.87,3.66-1.87,3.66,2.13q0,11.08,0,22.15a6.77,6.77,0,0,0,.31,2.92,36.37,36.37,0,0,0,2.91,3.09c1,.85.8,1.41,0,2.15s-1.5,1.49-2.25,2.23c-2.62,2.61-2.62,2.61-5.32-.12Z"
     transform="translate(-31 -39.09)"
     id="path32" />
  <path
     class="a"
     d="M188.47,66.23q.07,15.45.15,30.9a57.3,57.3,0,0,1-6.14,6.18,3.38,3.38,0,0,1-1.93-3.5c.05-11.16,0-22.33,0-33.5Z"
     transform="translate(-31 -39.09)"
     id="path34" />
  <path
     class="a"
     d="M342.93,64.15c1.06-1.63,2.79-2.6,4-4.16s2.48-1.75,3.91.08a33.69,33.69,0,0,0,4.46,4.45c1.27,1.12,1.27,2,.06,3.14-3.44,3.33-6.76,6.79-10.21,10.11a5.48,5.48,0,0,0-2,4.57c.17,3.26.13,6.54,0,9.81-.08,2.5,2,3.32,3.36,4.74.38.41,1.06,0,1.54-.52,1.15-1.27,2.41-2.45,3.64-3.66.63-.62,1.23-1.06,2.08-.21s.82,1.34-.07,2.21c-3.26,3.18-6.43,6.46-9.58,9.74-.84.87-1.39.8-2.21,0-2.24-2.31-4.65-4.47-6.7-7,1.78-.86,3.51-1.85,5.36-2.54s2.34-1.78,2.33-3.64c0-5.33-.23-10.67.23-16,1.89-1.19,3.25-3,4.81-4.49.46-.45.66-.92,0-1.5-1.67-1.55-2.94-3.53-5.05-4.59Z"
     transform="translate(-31 -39.09)"
     id="path36" />
  <path
     class="b"
     d="M342.93,64.15v.54c.44,3.52.06,7.06.21,10.58-.46,5.32-.26,10.66-.23,16,0,1.86-.53,3-2.33,3.64s-3.58,1.68-5.36,2.54q-.05-12.19-.09-24.38a2.06,2.06,0,0,1,.26-1.3C337.87,69.2,340.41,66.68,342.93,64.15Z"
     transform="translate(-31 -39.09)"
     id="path38" />
  <path
     class="b"
     d="M123.05,97.44c0-8.15,0-16.3-.12-24.44A2.87,2.87,0,0,1,124,70.86c1.7-1.72,3.45-3.39,5.14-5.12.36-.37.6-1,1.2-.84.84.22.48,1,.48,1.54,0,7.69,0,15.39,0,23.08,0,1.52.11,3,.17,4.56C128.06,94.48,125.78,96.5,123.05,97.44Z"
     transform="translate(-31 -39.09)"
     id="path40" />
  <path
     class="a"
     d="M387.75,101.5c-.64-.81-.33-1.76-.34-2.64q0-14.73,0-29.46c0-3.28,0-3.27-3.19-3.36-.57,0-1.36.33-1.67-.33s.55-1,.93-1.38c3.54-3.64,7.13-7.24,10.69-10.86a1.41,1.41,0,0,1,1.32-.48c0,1.13.07,2.3,0,3.47-.12,1.53.55,2,2,1.93a17.61,17.61,0,0,1,5.54.29c-2.26,2.22-4.33,4.24-6.37,6.29a3.15,3.15,0,0,0-1.19,2.33c0,9.52,0,19,0,28.55a5.63,5.63,0,0,0,.18,1,6.28,6.28,0,0,0,2.44-2c.82-.8,1.3-.93,2.24-.12,1.12,1,.51,1.48-.18,2.17q-3.16,3.13-6.29,6.3c-2.41,2.43-2.41,2.43-4.81-.28l0,0c2.69-.5,5.91-4.15,5.95-6.9.06-4.26,0-8.52,0-12.78,0-4.72-.06-9.44,0-14.15,0-2.09-.79-3-2.84-2.77-.45,0-.91,0-1.37,0-3,0-3.16.18-3.16,3.05q0,16.09,0,32.18Z"
     transform="translate(-31 -39.09)"
     id="path42" />
  <path
     class="b"
     d="M265.84,79.5l-.17,14.43a21.26,21.26,0,0,0-7.35,3.89c-.82-.62-.51-1.52-.52-2.32,0-6.75,0-13.5-.06-20.25,0-2.09.28-3.84,2-5.24,2-1.66,3.56-3.86,5.79-5.3a.59.59,0,0,0,.12.19l.12,10.29Z"
     transform="translate(-31 -39.09)"
     id="path44" />
  <path
     class="b"
     d="M206.78,64.91a6.67,6.67,0,0,1,.38,3.14c0,7.46-.09,14.91.06,22.37,0,2.46-.68,3.86-3,4.94-4.54,2.14-4.47,2.28-4.48-2.75q0-10.16-.05-20.31C201.59,69.38,204.35,67.3,206.78,64.91Z"
     transform="translate(-31 -39.09)"
     id="path46" />
  <path
     class="b"
     d="M373.59,89.57,363.42,79.44a3.81,3.81,0,0,1-1.32-1.82c2.08-1.69,3.62-4,5.94-5.38L378.68,82.8a2.19,2.19,0,0,1,.8,1.33C377.52,85.94,375.91,88.14,373.59,89.57Z"
     transform="translate(-31 -39.09)"
     id="path48" />
  <path
     class="a"
     d="M373.59,89.57c2.32-1.43,3.93-3.63,5.89-5.43.73,3,.16,6,.3,9,0,.62-.44.92-.82,1.3-3.32,3.31-6.68,6.57-9.91,10-1,1-1.55.81-2.35-.05a46.12,46.12,0,0,0-3.49-3.49c-1.12-1-.93-1.79,0-2.66,1.14-1.11,2.35-2.15,3.45-3.29.93-1,1.67-1.09,2.59,0,1.12,1.4,2.37,2.69,3.57,4l.81-.29Z"
     transform="translate(-31 -39.09)"
     id="path50" />
  <path
     class="a"
     d="M368,72.24c-2.32,1.42-3.86,3.69-5.94,5.38-.61-3.87-1-7.55,2.6-10.52a86.42,86.42,0,0,0,7.77-7.65c1-1.06,1.64-1,2.55,0a34,34,0,0,0,3.32,3.35c1.35,1.12,1,2-.08,2.94a17.49,17.49,0,0,0-2.57,2.58c-1.41,1.91-2.6,1.52-3.91-.06-1-1.19-2-2.3-3.49-3.93A49.56,49.56,0,0,0,368,72.24Z"
     transform="translate(-31 -39.09)"
     id="path52" />
  <path
     class="a"
     d="M265.63,64.91a.59.59,0,0,1-.12-.19c1.44-2.24,3.6-3.8,5.38-5.71.59-.63.95-.49,1.48.05,2.1,2.15,4.19,4.34,6.4,6.38,1,.9.11,1.34-.27,1.72-4.19,4.15-8.43,8.24-12.66,12.35q0-2.15-.08-4.31c2.18-1,3.46-3.06,5.13-4.67a.64.64,0,0,0,0-1C269.1,68.06,268,65.76,265.63,64.91Z"
     transform="translate(-31 -39.09)"
     id="path54" />
  <path
     class="a"
     d="M258.32,97.82a21.26,21.26,0,0,1,7.35-3.89c.21.09.43.16.63.27,1.41.72,2,3.22,3.83,2.53,1.43-.54,2.44-2.2,3.65-3.34.88-.83,1.61-2.27,3-.48.56.71.61,1,0,1.59q-5.06,4.92-10,10c-.64.65-1.24,1.06-1.88.35C262.77,102.4,260.12,100.51,258.32,97.82Z"
     transform="translate(-31 -39.09)"
     id="path56" />
  <path
     class="a"
     d="M68.87,97.12a65.74,65.74,0,0,1,8-4A40.29,40.29,0,0,1,79.93,96c.93.85,1.37.87,1.79-.11.59-1.39,2.23-1.31,3-2.45.45-.64,1,.33,1.43.66a1.14,1.14,0,0,1,.11,1.8c-3,3-5.95,5.94-8.92,8.91-.31.31-.7.5-1,.2C73.91,102.37,70.74,100.36,68.87,97.12Z"
     transform="translate(-31 -39.09)"
     id="path58" />
  <path
     class="a"
     d="M123.05,97.44c2.73-.94,5-3,8-3.36a11.38,11.38,0,0,1,1.07.79c3,2.76,2,3.2,5.44-.14.74-.72,1.42-1.51,2.17-2.23a1.27,1.27,0,0,1,2.1.19c.58.69.59,1.14-.16,1.88-3.19,3.1-6.29,6.3-9.37,9.51-1,1.07-1.86,1.31-2.9.07C127.39,101.79,124.82,100,123.05,97.44Z"
     transform="translate(-31 -39.09)"
     id="path60" />
  <path
     class="b"
     d="M188.47,66.23l-7.88.08L175,65.88l7.19-7.76a17.84,17.84,0,0,0,6.13.05c2,.05,3.94.1,5.91.17.36,0,.79-.07,1,.37s-.18.67-.44.93Z"
     transform="translate(-31 -39.09)"
     id="path62" />
  <path
     class="a"
     d="M330.76,39.1c.88.22,1.37,1.13,2,1.8,3.64,3.66,3.64,3.66.16,7.3-2.44,2.55-2.44,2.55-5,0-3.34-3.38-3.34-3.38-.14-6.91C329.5,39.4,329.94,39.06,330.76,39.1Z"
     transform="translate(-31 -39.09)"
     id="path64" />
  <path
     class="b"
     d="M325,58.42a41.54,41.54,0,0,0-8.09-.26c-1.69-6.77,3.83-9.36,7.66-13.46C325.08,49.57,324.34,54,325,58.42Z"
     transform="translate(-31 -39.09)"
     id="path66" />
  <path
     class="a"
     d="M136.66,58.54a2,2,0,0,1,1.45.77l3.68,3.86a1.11,1.11,0,0,1,0,1.77,2.14,2.14,0,0,0-.18.14c-4.26,5.18-6.11,5.13-10.19-.18-.43-.55-.44-1-.09-1.4,1.54-1.63,3.15-3.21,4.75-4.79C136.25,58.57,136.53,58.57,136.66,58.54Z"
     transform="translate(-31 -39.09)"
     id="path68" />
  <path
     class="a"
     d="M236.41,48.27c-2.27,2-5.26,2.75-7.77,4.35-.56-.41-.62-1.12-1.1-1.64-2.53-2.78-2.2-4.63,1-6.71,2.68-1.72,2.72-1.76,4.92.69C234.48,46,235.86,46.8,236.41,48.27Z"
     transform="translate(-31 -39.09)"
     id="path70" />
  <path
     class="a"
     d="M156.73,48.41a46,46,0,0,1-7.67,3.83c-4.9-4.49-4.21-3.39-.2-7.47,2.4-2.45,2-2.73,4.59.06C154.56,46,156,46.89,156.73,48.41Z"
     transform="translate(-31 -39.09)"
     id="path72" />
  <path
     class="b"
     d="M182.48,103.31a57.3,57.3,0,0,0,6.14-6.18c.89-.81,1.81-1.58,2.66-2.43s1.37-.83,2.26,0,.33,1.44-.22,2c-2.32,2.34-4.69,4.63-7,6.94C184.34,105.57,184.34,105.57,182.48,103.31Z"
     transform="translate(-31 -39.09)"
     id="path74" />
  <path
     class="a"
     d="M188.32,58.17a17.84,17.84,0,0,1-6.13-.05c1.91-1.09,3.08-3,4.73-4.36.33-.28.49-.78,1-.59s.34.76.35,1.17C188.33,55.61,188.32,56.89,188.32,58.17Z"
     transform="translate(-31 -39.09)"
     id="path76" />
  <path
     class="a"
     d="M388.63,102.44l-.47-.46,0,0,.46.46Z"
     transform="translate(-31 -39.09)"
     id="path78" />
  <path
     class="a"
     d="M389.07,102.88l-.44-.45,0,0,.46.44Z"
     transform="translate(-31 -39.09)"
     id="path80" />
  <path
     class="a"
     d="M388.16,102l-.41-.48h0l.43.46Z"
     transform="translate(-31 -39.09)"
     id="path82" />
  <path
     class="b"
     d="M388.19,102l-.43-.46q0-16.09,0-32.18c0-2.87.2-3,3.16-3.05.46,0,.92,0,1.37,0,2-.19,2.88.68,2.84,2.77-.09,4.72,0,9.43,0,14.15,0,4.26,0,8.52,0,12.78,0,2.74-3.26,6.39-5.95,6.9l-.46-.44Z"
     transform="translate(-31 -39.09)"
     id="path84" />
  <path
     class="b"
     d="M280.12,69.88l1.93.14c2-2.27,2.79-9,14.61-7.66-.43,28.75-13,31.78-12.25,37.68a6,6,0,0,0,5.8,5.52c9-.31,8.64-12.51,11.46-43.26h11.68c-.62,10.84-2.32,21.68-2.51,32.3.14,7.07,4.44,10.84,10.1,10.89,9.31.31,12.25-10.55,12.25-15.19h-2c-.19,3.82-2,6.57-5.95,6.73-10.67.14-4.8-18.77-4.73-34.6l12.68.07-.07-8.09C280.43,54.15,287.12,53.12,280.12,69.88Z"
     transform="translate(-31 -39.09)"
     id="path86" />
  <path
     class="a"
     d="M299.86,81.8,285.31,96.35a1.54,1.54,0,0,0-.22.28,5.55,5.55,0,0,0-1.06,3.73,6.26,6.26,0,0,0,6.09,5.79c7-.24,8.63-7.34,10.18-24.12A.27.27,0,0,0,299.86,81.8Z"
     transform="translate(-31 -39.09)"
     id="path88" />
  <path
     class="a"
     d="M332.71,89.92H332a.73.73,0,0,0-.81.65c-.33,3.67-1.89,6.26-5.77,6.42-3,0-4.44-1.41-5.33-3.86a.45.45,0,0,0-.75-.14L312.6,100a1.45,1.45,0,0,0-.09,1.82,10.1,10.1,0,0,0,8.35,4c9.14.3,12.43-9.64,12.82-14.92A1,1,0,0,0,332.71,89.92Z"
     transform="translate(-31 -39.09)"
     id="path90" />
  <path
     class="a"
     d="M279.11,70.54l2.51.15a1,1,0,0,0,.89-.45c1.73-2.73,2-8.91,13.65-7.62l5.26,0v-.1h12.26v.14l7.53,0v0l12.85.07a.46.46,0,0,0,.46-.46l-.07-7.51a.53.53,0,0,0-.53-.52C279.48,54,286,53,278.92,70.22A.23.23,0,0,0,279.11,70.54Z"
     transform="translate(-31 -39.09)"
     id="path92" />
  <rect
     class="a"
     width="141"
     height="67.05"
     rx="7.74"
     ry="7.74"
     id="rect94" />
  <path
     class="c"
     d="M76.88,87.3l7.93-26.94a1.92,1.92,0,0,1,2-1.46,1.72,1.72,0,0,1,1.85,1.24L96.5,87.49a2,2,0,0,1,.09.59A1.92,1.92,0,0,1,96,89.47a1.76,1.76,0,0,1-1.29.57,1.85,1.85,0,0,1-2-1.43l-1.56-5.34h-9L80.49,89a1.19,1.19,0,0,1-.59.71,2,2,0,0,1-1.13.34,1.91,1.91,0,0,1-1.44-.59A2,2,0,0,1,76.76,88,2.47,2.47,0,0,1,76.88,87.3ZM86.77,68,83.39,79.28h6.66Z"
     transform="translate(-31 -39.09)"
     id="path98" />
  <path
     class="c"
     d="M105.71,64.26V58.94h19.88v5.37A1.88,1.88,0,0,1,125,65.7a1.91,1.91,0,0,1-1.38.57,2,2,0,0,1-1.42-.59,1.87,1.87,0,0,1-.6-1.38V62.88h-4v25.2a1.88,1.88,0,0,1-.59,1.39,1.91,1.91,0,0,1-1.38.57,2,2,0,0,1-1.43-.57,1.88,1.88,0,0,1-.59-1.39V62.88h-4v1.38a2,2,0,1,1-3.94,0Z"
     transform="translate(-31 -39.09)"
     id="path100" />
  <path
     inkscape:connector-curvature="0"
     class="c"
     d="m 104.72,47.29 7.93,-26.94 a 1.92,1.92 0 0 1 2,-1.46 1.72,1.72 0 0 1 1.85,1.24 l 7.84,27.35 a 2,2 0 0 1 0.09,0.59 1.92,1.92 0 0 1 -0.59,1.39 1.76,1.76 0 0 1 -1.29,0.57 1.85,1.85 0 0 1 -2,-1.43 l -1.56,-5.34 h -9 l -1.66,5.73 a 1.19,1.19 0 0 1 -0.59,0.71 2,2 0 0 1 -1.13,0.34 1.91,1.91 0 0 1 -1.44,-0.59 2,2 0 0 1 -0.57,-1.46 2.47,2.47 0 0 1 0.12,-0.7 z m 9.89,-19.3 -3.38,11.28 h 6.66 z"
     id="path98-3"
     style="fill:#ffffff" />
  <text
     xml:space="preserve"
     style="font-style:normal;font-weight:normal;font-size:40px;line-height:1.25;font-family:sans-serif;letter-spacing:0px;word-spacing:0px;fill:#ffffff;fill-opacity:1;stroke:none"
     x="14.610001"
     y="49.23"
     id="text4633"><tspan
       sodipodi:role="line"
       id="tspan4631"
       x="14.610001"
       y="49.23">D</tspan></text>
</svg>
